<mxfile host="65bd71144e">
    <diagram id="Qcf0gduKIScGG4rLPe4D" name="Strona-1">
        <mxGraphModel dx="1471" dy="1262" grid="0" gridSize="10" guides="1" tooltips="1" connect="1" arrows="1" fold="1" page="0" pageScale="1" pageWidth="827" pageHeight="1169" math="0" shadow="0">
            <root>
                <mxCell id="0"/>
                <mxCell id="1" parent="0"/>
                <mxCell id="27" value="" style="edgeStyle=none;fontSize=16;fontStyle=0;labelBorderColor=none;html=1;fontFamily=Nunito;fontSource=https%3A%2F%2Ffonts.googleapis.com%2Fcss%3Ffamily%3DNunito;labelBackgroundColor=#33FFFF;" edge="1" parent="1" source="2" target="21">
                    <mxGeometry relative="1" as="geometry"/>
                </mxCell>
                <object label="Użytownicy" id="2">
                    <mxCell style="swimlane;whiteSpace=wrap;swimlaneFillColor=default;rounded=0;shadow=0;glass=0;strokeWidth=1;fillStyle=auto;fillColor=#ffcd28;strokeColor=#d79b00;gradientColor=#ffa500;fontStyle=1;fontColor=#000000;fontSize=16;labelBorderColor=none;html=1;fontFamily=Nunito;fontSource=https%3A%2F%2Ffonts.googleapis.com%2Fcss%3Ffamily%3DNunito;" vertex="1" parent="1">
                        <mxGeometry x="-140" y="-355" width="220" height="200" as="geometry"/>
                    </mxCell>
                </object>
                <mxCell id="6" value="[#] ID_użytkownika" style="text;strokeColor=none;align=center;fillColor=none;verticalAlign=middle;whiteSpace=wrap;rounded=0;shadow=0;glass=0;fillStyle=auto;strokeWidth=1;fontStyle=0;fontSize=16;labelBorderColor=none;html=1;fontFamily=Nunito;fontSource=https%3A%2F%2Ffonts.googleapis.com%2Fcss%3Ffamily%3DNunito;" vertex="1" parent="2">
                    <mxGeometry x="10" y="30" width="200" height="30" as="geometry"/>
                </mxCell>
                <mxCell id="8" value="Imię_użytkownika" style="text;strokeColor=none;align=center;fillColor=none;verticalAlign=middle;whiteSpace=wrap;rounded=0;shadow=0;glass=0;fillStyle=auto;strokeWidth=1;fontStyle=0;fontSize=16;labelBorderColor=none;html=1;fontFamily=Nunito;fontSource=https%3A%2F%2Ffonts.googleapis.com%2Fcss%3Ffamily%3DNunito;" vertex="1" parent="2">
                    <mxGeometry x="10" y="60" width="200" height="30" as="geometry"/>
                </mxCell>
                <mxCell id="9" value="Nazwisko_użytkownika" style="text;strokeColor=none;align=center;fillColor=none;verticalAlign=middle;whiteSpace=wrap;rounded=0;shadow=0;glass=0;fillStyle=auto;strokeWidth=1;fontStyle=0;fontSize=16;labelBorderColor=none;html=1;fontFamily=Nunito;fontSource=https%3A%2F%2Ffonts.googleapis.com%2Fcss%3Ffamily%3DNunito;" vertex="1" parent="2">
                    <mxGeometry x="10" y="90" width="200" height="30" as="geometry"/>
                </mxCell>
                <mxCell id="16" value="Email_użytkownika" style="text;strokeColor=none;align=center;fillColor=none;verticalAlign=middle;whiteSpace=wrap;rounded=0;shadow=0;glass=0;fillStyle=auto;strokeWidth=1;fontStyle=0;fontSize=16;labelBorderColor=none;html=1;fontFamily=Nunito;fontSource=https%3A%2F%2Ffonts.googleapis.com%2Fcss%3Ffamily%3DNunito;" vertex="1" parent="2">
                    <mxGeometry x="10" y="120" width="200" height="30" as="geometry"/>
                </mxCell>
                <mxCell id="17" value="Hasło(hash)_użytkownika" style="text;strokeColor=none;align=center;fillColor=none;verticalAlign=middle;whiteSpace=wrap;rounded=0;shadow=0;glass=0;fillStyle=auto;strokeWidth=1;fontStyle=0;fontSize=16;labelBorderColor=none;html=1;fontFamily=Nunito;fontSource=https%3A%2F%2Ffonts.googleapis.com%2Fcss%3Ffamily%3DNunito;" vertex="1" parent="2">
                    <mxGeometry x="10" y="150" width="200" height="30" as="geometry"/>
                </mxCell>
                <mxCell id="88" value="" style="edgeStyle=none;fontStyle=0;fontSize=16;labelBorderColor=none;html=1;fontFamily=Nunito;fontSource=https%3A%2F%2Ffonts.googleapis.com%2Fcss%3Ffamily%3DNunito;" edge="1" parent="1" source="21" target="82">
                    <mxGeometry relative="1" as="geometry"/>
                </mxCell>
                <object label="Zamówienia" id="21">
                    <mxCell style="swimlane;whiteSpace=wrap;swimlaneFillColor=default;rounded=0;shadow=0;glass=0;strokeWidth=1;fillColor=#f5f5f5;fillStyle=auto;gradientColor=#b3b3b3;strokeColor=#666666;fontColor=#000000;fontStyle=1;fontSize=16;labelBorderColor=none;html=1;fontFamily=Nunito;fontSource=https%3A%2F%2Ffonts.googleapis.com%2Fcss%3Ffamily%3DNunito;" vertex="1" parent="1">
                        <mxGeometry x="280" y="-380" width="220" height="250" as="geometry"/>
                    </mxCell>
                </object>
                <mxCell id="52" value="Data_zamówienia" style="text;strokeColor=none;align=center;fillColor=none;verticalAlign=middle;whiteSpace=wrap;rounded=0;shadow=0;glass=0;fillStyle=auto;strokeWidth=1;fontStyle=0;fontSize=16;labelBorderColor=none;html=1;fontFamily=Nunito;fontSource=https%3A%2F%2Ffonts.googleapis.com%2Fcss%3Ffamily%3DNunito;" vertex="1" parent="21">
                    <mxGeometry x="10" y="120" width="200" height="30" as="geometry"/>
                </mxCell>
                <mxCell id="53" value="Cena_zamówienia" style="text;strokeColor=none;align=center;fillColor=none;verticalAlign=middle;whiteSpace=wrap;rounded=0;shadow=0;glass=0;fillStyle=auto;strokeWidth=1;fontStyle=0;fontSize=16;labelBorderColor=none;html=1;fontFamily=Nunito;fontSource=https%3A%2F%2Ffonts.googleapis.com%2Fcss%3Ffamily%3DNunito;" vertex="1" parent="21">
                    <mxGeometry x="10" y="90" width="200" height="30" as="geometry"/>
                </mxCell>
                <mxCell id="22" value="[#] ID_zamówienia" style="text;strokeColor=none;align=center;fillColor=none;verticalAlign=middle;whiteSpace=wrap;rounded=0;shadow=0;glass=0;fillStyle=auto;strokeWidth=1;fontStyle=0;fontSize=16;labelBorderColor=none;html=1;fontFamily=Nunito;fontSource=https%3A%2F%2Ffonts.googleapis.com%2Fcss%3Ffamily%3DNunito;" vertex="1" parent="21">
                    <mxGeometry x="10" y="30" width="200" height="30" as="geometry"/>
                </mxCell>
                <mxCell id="55" value="[F] ID_użytkownika" style="text;strokeColor=none;align=center;fillColor=none;verticalAlign=middle;whiteSpace=wrap;rounded=0;shadow=0;glass=0;fillStyle=auto;strokeWidth=1;fontStyle=0;fontSize=16;labelBorderColor=none;html=1;fontFamily=Nunito;fontSource=https%3A%2F%2Ffonts.googleapis.com%2Fcss%3Ffamily%3DNunito;" vertex="1" parent="21">
                    <mxGeometry x="10" y="60" width="200" height="30" as="geometry"/>
                </mxCell>
                <mxCell id="69" value="Sposób_dostawy" style="text;strokeColor=none;align=center;fillColor=none;verticalAlign=middle;whiteSpace=wrap;rounded=0;shadow=0;glass=0;fillStyle=auto;strokeWidth=1;fontStyle=0;fontSize=16;labelBorderColor=none;html=1;fontFamily=Nunito;fontSource=https%3A%2F%2Ffonts.googleapis.com%2Fcss%3Ffamily%3DNunito;" vertex="1" parent="21">
                    <mxGeometry x="10" y="150" width="200" height="30" as="geometry"/>
                </mxCell>
                <mxCell id="90" value="Metoda_płatoności" style="text;strokeColor=none;align=center;fillColor=none;verticalAlign=middle;whiteSpace=wrap;rounded=0;shadow=0;glass=0;fillStyle=auto;strokeWidth=1;fontStyle=0;fontSize=16;labelBorderColor=none;html=1;fontFamily=Nunito;fontSource=https%3A%2F%2Ffonts.googleapis.com%2Fcss%3Ffamily%3DNunito;" vertex="1" parent="21">
                    <mxGeometry x="10" y="180" width="200" height="30" as="geometry"/>
                </mxCell>
                <mxCell id="91" value="Status_zamówienia" style="text;strokeColor=none;align=center;fillColor=none;verticalAlign=middle;whiteSpace=wrap;rounded=0;shadow=0;glass=0;fillStyle=auto;strokeWidth=1;fontStyle=0;fontSize=16;labelBorderColor=none;html=1;fontFamily=Nunito;fontSource=https%3A%2F%2Ffonts.googleapis.com%2Fcss%3Ffamily%3DNunito;" vertex="1" parent="21">
                    <mxGeometry x="10" y="210" width="200" height="30" as="geometry"/>
                </mxCell>
                <mxCell id="125" value="" style="edgeStyle=none;entryX=0;entryY=0.5;entryDx=0;entryDy=0;fontStyle=0;fontSize=16;labelBorderColor=none;html=1;fontFamily=Nunito;fontSource=https%3A%2F%2Ffonts.googleapis.com%2Fcss%3Ffamily%3DNunito;" edge="1" parent="1" source="41" target="106">
                    <mxGeometry relative="1" as="geometry"/>
                </mxCell>
                <object label="Produkty" id="41">
                    <mxCell style="swimlane;whiteSpace=wrap;swimlaneFillColor=default;rounded=0;shadow=0;glass=0;strokeWidth=1;fillColor=#6a00ff;fillStyle=auto;fontColor=#ffffff;strokeColor=#3700CC;fontStyle=0;fontSize=16;labelBorderColor=none;html=1;fontFamily=Nunito;fontSource=https%3A%2F%2Ffonts.googleapis.com%2Fcss%3Ffamily%3DNunito;" vertex="1" parent="1">
                        <mxGeometry x="-140" y="-83" width="220" height="200" as="geometry"/>
                    </mxCell>
                </object>
                <mxCell id="42" value="[#] ID_produktu" style="text;strokeColor=none;align=center;fillColor=none;verticalAlign=middle;whiteSpace=wrap;rounded=0;shadow=0;glass=0;fillStyle=auto;strokeWidth=1;fontStyle=0;fontSize=16;labelBorderColor=none;html=1;fontFamily=Nunito;fontSource=https%3A%2F%2Ffonts.googleapis.com%2Fcss%3Ffamily%3DNunito;" vertex="1" parent="41">
                    <mxGeometry x="10" y="30" width="200" height="30" as="geometry"/>
                </mxCell>
                <mxCell id="43" value="Nazwa_produktu" style="text;strokeColor=none;align=center;fillColor=none;verticalAlign=middle;whiteSpace=wrap;rounded=0;shadow=0;glass=0;fillStyle=auto;strokeWidth=1;fontStyle=0;fontSize=16;labelBorderColor=none;html=1;fontFamily=Nunito;fontSource=https%3A%2F%2Ffonts.googleapis.com%2Fcss%3Ffamily%3DNunito;" vertex="1" parent="41">
                    <mxGeometry x="10" y="60" width="200" height="30" as="geometry"/>
                </mxCell>
                <mxCell id="44" value="Cena_produktu" style="text;strokeColor=none;align=center;fillColor=none;verticalAlign=middle;whiteSpace=wrap;rounded=0;shadow=0;glass=0;fillStyle=auto;strokeWidth=1;fontStyle=0;fontSize=16;labelBorderColor=none;html=1;fontFamily=Nunito;fontSource=https%3A%2F%2Ffonts.googleapis.com%2Fcss%3Ffamily%3DNunito;" vertex="1" parent="41">
                    <mxGeometry x="10" y="90" width="200" height="30" as="geometry"/>
                </mxCell>
                <mxCell id="45" value="Marka_produktu *" style="text;strokeColor=none;align=center;fillColor=none;verticalAlign=middle;whiteSpace=wrap;rounded=0;shadow=0;glass=0;fillStyle=auto;strokeWidth=1;fontStyle=0;fontSize=16;labelBorderColor=none;html=1;fontFamily=Nunito;fontSource=https%3A%2F%2Ffonts.googleapis.com%2Fcss%3Ffamily%3DNunito;" vertex="1" parent="41">
                    <mxGeometry x="10" y="120" width="200" height="30" as="geometry"/>
                </mxCell>
                <mxCell id="46" value="Rozmiar_produktu *" style="text;strokeColor=none;align=center;fillColor=none;verticalAlign=middle;whiteSpace=wrap;rounded=0;shadow=0;glass=0;fillStyle=auto;strokeWidth=1;fontStyle=0;fontSize=16;labelBorderColor=none;html=1;fontFamily=Nunito;fontSource=https%3A%2F%2Ffonts.googleapis.com%2Fcss%3Ffamily%3DNunito;" vertex="1" parent="41">
                    <mxGeometry x="10" y="150" width="200" height="30" as="geometry"/>
                </mxCell>
                <object label="Realizacja" id="82">
                    <mxCell style="swimlane;whiteSpace=wrap;swimlaneFillColor=default;rounded=0;shadow=0;glass=0;strokeWidth=1;fillColor=#008a00;fillStyle=auto;fontColor=#ffffff;strokeColor=#005700;fontStyle=1;fontSize=16;labelBorderColor=none;html=1;fontFamily=Nunito;fontSource=https%3A%2F%2Ffonts.googleapis.com%2Fcss%3Ffamily%3DNunito;" vertex="1" parent="1">
                        <mxGeometry x="627" y="-318" width="220" height="126" as="geometry"/>
                    </mxCell>
                </object>
                <mxCell id="85" value="[#] ID_realizacji" style="text;strokeColor=none;align=center;fillColor=none;verticalAlign=middle;whiteSpace=wrap;rounded=0;shadow=0;glass=0;fillStyle=auto;strokeWidth=1;fontStyle=0;fontSize=16;labelBorderColor=none;html=1;fontFamily=Nunito;fontSource=https%3A%2F%2Ffonts.googleapis.com%2Fcss%3Ffamily%3DNunito;" vertex="1" parent="82">
                    <mxGeometry x="10" y="30" width="200" height="30" as="geometry"/>
                </mxCell>
                <mxCell id="86" value="Status_realizacji" style="text;strokeColor=none;align=center;fillColor=none;verticalAlign=middle;whiteSpace=wrap;rounded=0;shadow=0;glass=0;fillStyle=auto;strokeWidth=1;fontStyle=0;fontSize=16;labelBorderColor=none;html=1;fontFamily=Nunito;fontSource=https%3A%2F%2Ffonts.googleapis.com%2Fcss%3Ffamily%3DNunito;" vertex="1" parent="82">
                    <mxGeometry x="16" y="90" width="200" height="30" as="geometry"/>
                </mxCell>
                <mxCell id="122" value="[F] ID_zamówienia" style="text;strokeColor=none;align=center;fillColor=none;verticalAlign=middle;whiteSpace=wrap;rounded=0;shadow=0;glass=0;fillStyle=auto;strokeWidth=1;fontStyle=0;fontSize=16;labelBorderColor=none;html=1;fontFamily=Nunito;fontSource=https%3A%2F%2Ffonts.googleapis.com%2Fcss%3Ffamily%3DNunito;" vertex="1" parent="82">
                    <mxGeometry x="13" y="60" width="200" height="30" as="geometry"/>
                </mxCell>
                <mxCell id="114" value="" style="edgeStyle=none;entryX=0.5;entryY=1;entryDx=0;entryDy=0;fontStyle=0;fontSize=16;labelBorderColor=none;html=1;fontFamily=Nunito;fontSource=https%3A%2F%2Ffonts.googleapis.com%2Fcss%3Ffamily%3DNunito;" edge="1" parent="1" source="106" target="21">
                    <mxGeometry relative="1" as="geometry"/>
                </mxCell>
                <object label="Produkty_zamówienia" id="106">
                    <mxCell style="swimlane;whiteSpace=wrap;swimlaneFillColor=default;rounded=0;shadow=0;glass=0;strokeWidth=1;fillColor=#6a00ff;fillStyle=auto;fontColor=#000000;strokeColor=#3700CC;gradientColor=default;gradientDirection=radial;fontStyle=5;fontSize=16;labelBorderColor=none;html=1;fontFamily=Nunito;fontSource=https%3A%2F%2Ffonts.googleapis.com%2Fcss%3Ffamily%3DNunito;" vertex="1" parent="1">
                        <mxGeometry x="280" y="-33" width="220" height="100" as="geometry"/>
                    </mxCell>
                </object>
                <mxCell id="107" value="[F] ID_produktu" style="text;strokeColor=none;align=center;fillColor=none;verticalAlign=middle;whiteSpace=wrap;rounded=0;shadow=0;glass=0;fillStyle=auto;strokeWidth=1;fontStyle=0;fontSize=16;labelBorderColor=none;html=1;fontFamily=Nunito;fontSource=https%3A%2F%2Ffonts.googleapis.com%2Fcss%3Ffamily%3DNunito;" vertex="1" parent="106">
                    <mxGeometry x="10" y="30" width="200" height="30" as="geometry"/>
                </mxCell>
                <mxCell id="108" value="[F] ID_zamówienia" style="text;strokeColor=none;align=center;fillColor=none;verticalAlign=middle;whiteSpace=wrap;rounded=0;shadow=0;glass=0;fillStyle=auto;strokeWidth=1;fontStyle=0;fontSize=16;labelBorderColor=none;html=1;fontFamily=Nunito;fontSource=https%3A%2F%2Ffonts.googleapis.com%2Fcss%3Ffamily%3DNunito;" vertex="1" parent="106">
                    <mxGeometry x="10" y="60" width="200" height="30" as="geometry"/>
                </mxCell>
            </root>
        </mxGraphModel>
    </diagram>
</mxfile>